<svg width="387" height="63" viewBox="0 0 387 63" fill="none" xmlns="http://www.w3.org/2000/svg">
<path d="M30.4794 62.2882C30.7314 62.2095 31.6923 62.4008 32.0893 62.3676C31.6619 63.1993 29.5971 62.5737 30.4794 62.2882ZM73.0369 1.8941C72.6949 2.09972 72.3544 2.30534 72.0153 2.51096C72.9775 2.64455 74.2914 2.4936 75.2111 2.68875C75.3614 2.72153 74.9716 3.31687 75.3272 3.34344C75.6835 3.36984 75.6142 2.55627 76.1346 2.46923C76.7595 2.37408 79.3014 2.94076 80.2229 2.92695C83.6818 2.87182 87.0091 2.4069 90.49 2.74431C86.92 3.34668 90.5256 3.95882 91.5091 3.69781C91.7295 3.63737 91.6662 2.12493 95.189 2.50514C97.4417 2.74639 95.3631 4.90914 99.1346 3.82508C96.2409 2.31299 99.0983 2.41844 101.316 2.36761C101.697 2.35862 104.843 2.58507 106.264 2.51764C106.749 2.4942 107.447 1.70174 108.072 1.68075C108.501 1.6669 108.826 2.09992 109.466 2.07765C112.455 1.97903 115.45 1.94421 118.419 2.08935C116.668 4.126 119.795 2.95641 119.941 3.05367C120.657 3.60611 117.416 3.7649 118.698 4.11005C120.475 4.0462 122.332 3.98224 124.087 3.91828C122.636 3.66905 126.007 2.20289 126.64 2.86868C126.353 1.06995 134.819 4.42973 136.08 3.828C136.35 3.7009 134.586 2.81302 138.666 3.21696C139.109 3.26184 138.942 3.80473 139.175 3.75397C139.311 3.72345 140.165 1.99771 141.054 2.95034C141.379 3.29803 139.311 4.43265 143.843 3.9738C142.003 2.21942 150.227 3.01784 151.688 3.45644C151.391 3.22082 151.094 2.98519 150.797 2.74955C152.265 3.38462 152.533 2.78739 152.865 2.81963C154.204 2.94911 156.057 3.54901 157.321 3.49288C158.792 3.42829 158.831 2.33629 160.515 2.75936C160.111 2.51884 159.717 2.27829 159.304 2.03777C160.483 2.09463 161.646 2.15147 162.825 2.20827C160.105 3.65655 163.412 2.27663 163.633 2.24527C163.982 2.19229 163.481 2.78459 164.064 2.71028C164.125 2.69809 164.036 2.14092 164.938 2.07737C166.825 1.94647 166.529 2.64743 167.324 2.63863C167.398 2.63493 167.14 2.13319 168.518 2.01288C172.844 1.62984 168.516 2.39762 168.329 2.46721C168.11 2.55897 169.606 4.65536 165.897 3.91551C167.141 4.15099 167.269 5.07924 167.409 5.10213C167.53 5.12095 169.704 4.98772 169.807 4.95562C170.85 4.63915 169.931 4.00577 170.134 3.89185C170.299 3.80002 172.867 4.6238 173.471 2.71478C174.709 4.47345 172.758 4.31458 170.703 4.58751C170.402 4.94906 172.665 5.29763 172.785 5.29651C175.716 5.28978 174.093 3.84388 174.733 2.91761C175.069 2.43295 176.27 3.41924 175.161 2.12237C177.835 1.98203 176.215 2.73632 176.387 2.84745C176.648 3.01069 177.586 2.63744 177.704 2.68685C177.877 2.76 177.277 3.21025 177.958 3.36771C178.072 3.39058 179.168 2.61571 177.753 2.24781C179.647 2.35535 179.482 1.696 180.116 3.02434C181.393 0.50806 181.047 4.50948 181.553 4.64971C182.899 5.01932 182.506 3.04555 182.577 2.94918C183.063 2.3316 186.811 3.00465 187.748 2.71875C187.38 4.14129 184.766 2.73847 184.187 3.01511C182.248 3.93558 186.924 3.72229 185.517 5.51094C186.108 5.01942 186.701 4.52788 187.294 4.03634C188.385 5.18356 186.843 5.68672 189.771 5.26269C190.253 4.27044 187.699 5.42229 188.211 4.64053C188.515 4.18172 190.209 4.08081 190.237 3.8391C190.272 3.54816 188.748 3.89512 188.985 3.44735C189.518 2.48109 195.047 3.39204 190.834 3.92526C192.009 3.90703 192.619 5.8266 193.641 5.22666C194.304 4.83723 190.568 2.19057 196.168 2.66835C196.288 3.57504 193.928 2.93961 193.868 3.0087C193.782 3.10929 194.211 5.15506 194.285 5.25595C194.53 5.5882 200.313 4.48328 201.483 5.50943C201.003 4.3275 205.786 5.2912 206.314 4.92986C206.453 4.83012 205.931 4.10653 206.08 4.02959C207.006 3.5716 209.536 4.86045 210.704 4.89185C211.996 4.92748 211.832 4.30205 211.904 4.3031C212.474 4.33697 212.02 4.76199 212.368 4.76016C212.892 4.7572 216.524 4.83717 216.709 4.74828C216.763 4.7206 216.167 4.00694 216.961 3.86984C217.099 3.84608 217.01 4.69375 219.369 4.32311C222.213 3.87727 217.392 3.27308 218.573 2.38329C220.4 3.64338 220.341 2.39126 220.837 2.48862C221.016 2.52408 222.272 3.58626 223.646 3.51613C222.658 3.69094 221.688 3.8657 220.689 4.04048C221.672 4.22524 223.537 3.99043 224.34 4.19969C224.73 4.30155 224.41 5.17683 225.257 5.15147C225.438 5.14132 226.145 3.00905 223.929 3.96968C223.751 3.20918 224.806 3.70251 225.296 3.48628C225.37 3.45259 225.66 2.1809 226.288 2.96957C226.441 3.16359 224.803 6.87496 229.034 4.18239C229.171 4.0956 228.695 3.63224 228.828 3.5357C228.919 3.47032 230.003 3.65586 230.123 3.58972C230.246 3.51877 229.721 3.01293 229.866 2.91287C230.613 2.39726 231.6 4.4058 230.057 4.2559C230.573 4.5033 231.089 4.7507 231.607 4.99809C231.05 3.48392 232.42 4.56997 233.12 4.52176C237.649 4.21351 234.613 3.23462 235.391 2.72297C236.645 1.90141 235.69 4.49681 237.555 3.71339C237.729 3.64012 235.464 2.54453 239.881 3.15556C239.228 3.19995 238.577 3.24433 237.926 3.2887C238.304 4.75355 240.279 3.18277 240.432 3.16185C242.169 2.95655 240.997 3.4877 243.576 2.72684C243.804 2.65853 244.302 3.01908 244.79 2.83747C246.814 2.08927 242.118 2.39278 241.973 1.79968C241.926 1.50909 246.977 1.57023 247.154 1.70781C247.893 2.31802 244.861 1.98293 245.441 2.7413C245.645 3.0107 252.879 2.43872 254.349 2.73046C256.021 3.0702 256.774 5.05542 256.78 2.82253C257.256 5.01305 257.669 3.51656 257.883 3.53109C260.469 3.72712 260.474 3.74921 262.699 3.53328C263.191 3.48632 263.608 4.15019 263.782 4.03741C263.883 3.96931 263.692 3.25818 264.188 3.03723C264.887 2.73495 269.001 3.45534 269.31 3.84782C269.617 4.24035 267.571 4.02338 267.94 4.66914C269.419 4.73033 270.84 4.5662 272.335 4.63C272.956 4.65844 272.638 5.11207 272.907 5.12029C273.021 5.12553 275.167 4.72053 275.076 4.55381C274.857 4.16626 268.242 4.44646 269.982 3.64911C270.317 3.49505 271.507 4.53484 271.315 3.26682C277.251 3.53722 283.124 3.80678 289.07 4.07504C285.659 5.03498 281.831 4.19846 278.29 4.29817C277.81 4.31062 276.148 4.19326 276.352 4.83382C279.387 4.99073 283.122 4.64509 286.041 5.05359C286.134 5.06712 285.794 5.64428 286.143 5.73445C286.796 5.90276 288.921 4.9668 289.28 5.20587C289.341 5.26164 288.132 6.02501 288.502 6.50643C289.454 7.74188 289.679 4.99799 290.486 5.02784C291.108 5.05215 295.314 6.36446 296.362 5.52286C297.473 4.6259 293.259 5.01482 293.568 4.28346C296.412 3.54004 299.32 4.31373 302.011 4.21282C302.058 4.21032 301.645 3.63949 302.244 3.5573C303.287 3.41427 303.564 4.22504 304.073 4.35309C304.621 4.48939 306.561 4.36607 306.822 4.66108C306.855 4.69977 306.465 5.50636 306.405 5.52921C305.561 5.86411 305.257 4.82017 305.18 4.80703C304.891 4.76845 304.609 5.16973 304.345 5.14683C303.911 5.10863 303.671 4.73916 303.099 4.7085C302.705 4.68597 303.088 5.39575 302.708 5.36458C302.567 5.35027 301.059 3.73174 300.922 5.38979C300.868 5.91298 313.229 6.5393 314.458 6.11621C313.403 5.9209 312.342 5.72558 311.279 5.53024C313.446 6.00734 316.001 4.67315 316.195 6.63183C324.169 6.76147 332.141 6.88902 340.113 7.01432C341.536 7.175 340.761 8.43759 343.101 8.06075C342.494 7.66231 341.887 7.26385 341.281 6.86538C342.48 7.1416 347.806 7.6674 348.669 7.40361C348.78 7.36906 348.932 6.22878 350.257 6.12476C351.434 6.03286 351.627 6.88579 352.257 7.04641C352.787 7.17889 353.38 6.95239 353.537 6.99879C353.658 7.03596 353.708 7.55785 353.998 7.64753C354.915 7.9247 354.166 6.45813 355.083 8.14194C354.862 8.20732 354.641 8.2727 354.42 8.33808C355.526 8.57719 357.04 9.33636 355.413 9.72223C355.134 9.78883 355.372 9.28257 355.163 9.28443C346.996 9.41661 353.52 10.3681 356.382 9.57003C357.121 10.315 361.248 9.83805 361.386 9.98482C361.577 10.1975 360.876 10.7991 361.802 11.3111C361.995 11.4196 367.502 10.973 365.523 11.9776C365.115 12.1849 362.473 11.9824 361.837 12.0148C363.342 13.5939 366.843 11.3035 367.239 11.3597C368.834 11.5989 364.183 12.7499 367.775 12.9162C370.538 13.0436 367.94 11.9975 369 11.54C369.595 11.2833 372.729 12.4341 372.637 10.9234C373.71 10.7564 373.086 11.5598 373.219 11.6167C373.35 11.6666 375.453 11.2032 376.139 11.5181C376.222 11.5573 375.965 12.3441 376.051 12.4079C376.219 12.5171 378.251 12.3493 378.332 12.2823C378.384 12.2358 377.896 11.5507 378.094 11.3829C378.325 11.1893 380.283 11.3407 380.39 11.1435C380.541 10.8455 378.126 11.0542 378.524 10.2831C379.639 10.4708 381.451 9.94791 382.183 9.32485C382.004 9.50283 380.924 9.53411 380.549 9.47373C380.719 8.34658 383.038 8.34931 382.25 9.24501C382.752 8.76355 382.406 8.51145 382.688 8.05812C382.761 7.94327 383.478 7.91579 383.615 7.72002C383.632 7.68108 382.891 7.2602 383.038 7.03064C383.303 6.61584 385.476 6.69688 385.655 6.80432C386.157 7.10887 384.387 7.49051 384.242 7.96635C384.222 8.03943 385.733 8.96202 385.757 9.04411C385.85 9.92574 384.17 9.29929 384.366 10.0925C384.781 10.258 385.197 10.4235 385.612 10.5889C384.017 11.4021 381.057 11.0046 380.3 11.9236C382.668 11.6386 385.15 11.6571 385.156 13.7174C385.159 14.5851 384.139 15.0993 384.18 15.3197C384.335 16.1083 385.75 15.2429 385.803 15.2843C385.846 15.3322 385.866 15.3789 385.867 15.4245C385.867 15.4245 385.867 15.4245 385.867 15.4245C385.869 15.8868 383.846 16.2307 383.746 16.4423C383.578 16.8181 384.487 18.3562 384.488 18.6975C384.457 18.7662 383.017 19.1393 383.507 19.7322C384.002 20.3311 385.265 20.3375 385.309 20.3997C385.552 20.7583 383.346 21.0987 383.282 21.3116C383.248 21.4192 384.437 22.0729 384.472 22.2625C384.503 22.4528 383.604 22.8733 383.253 23.4764C382.99 23.9245 383.763 24.2626 383.628 24.3334C383.531 24.3803 381.446 24.3841 381.344 24.4631C381.192 24.5801 381.683 25.1112 381.613 25.245C381.513 25.4376 380.839 25.2485 380.927 25.4455C380.994 25.5924 383.614 27.4182 383.6 27.9098C383.575 28.7482 380.799 26.8345 383.39 30.1286C383.408 30.1502 384.034 29.9117 384.051 29.9319C384.441 30.5385 382.438 31.4858 384.893 31.3086C380.331 32.3908 384.331 32.5719 383.663 33.9871C383.405 34.5311 381.636 34.7645 381.628 34.8459C381.804 35.5333 382.365 34.9964 382.558 35.3328C382.665 35.5209 381.085 36.2572 381.444 36.7278C381.63 36.9703 383.311 36.8745 383.38 36.9216C384.048 37.366 383.235 37.853 383.383 38.1704C383.481 38.3833 384.496 38.3946 384.523 38.4329C384.566 38.5125 383.193 39.3822 382.907 39.6868C382.69 39.9211 383.511 40.2819 383.36 40.3844C382.445 40.9973 380.486 39.4576 382.378 41.6197C382.493 41.7523 383.205 41.6946 383.226 41.721C383.669 42.3344 382.359 42.3948 382.128 42.9002C381.73 43.771 383.61 43.2765 382.048 43.8959C383.225 44.4576 383.88 44.4303 385.254 44.2643C381.449 44.727 380.119 46.983 384.344 46.9033C383 46.8756 383.156 48.1439 382.755 48.1684C382.505 48.1822 380.55 46.9309 381.459 49.7573C381.573 50.1104 382.754 49.6546 382.387 50.3805C379.545 50.2112 382.33 50.8414 382.333 50.9371C382.304 52.6052 375.357 51.2763 374.169 51.4726C372.786 51.7004 371.56 53.0209 371.259 53.0241C370.269 53.0298 371.087 52.3583 370.865 52.1141C370.639 51.8722 367.83 53.1648 367.689 53.0953C367.142 52.816 367.692 52.0226 367.635 51.9829C366.957 51.5019 363.183 52.1399 362.126 51.9612C362.161 52.474 364.283 52.5042 362.962 53.3346C361.425 54.3027 361.325 52.0419 361.284 51.9426C354.196 51.9987 347.125 52.0529 340.05 52.1052C340.142 53.3079 344.763 52.3802 344.87 52.538C345.489 53.4732 337.682 53.4904 336.722 53.0695C337.455 53.3262 338.179 53.583 338.908 53.8397C337.677 55.2281 334.906 53.4431 333.109 54.0613C332.528 54.2617 333.648 54.7908 333.625 54.8273C332.973 55.3672 331.923 54.9578 332.704 54.2333C331.111 54.931 331.341 54.1676 330.118 54.1154C330.055 54.1132 330.582 54.6692 329.615 54.9046C329.162 55.0145 326.747 55.0261 326.426 55.5156C326.294 55.7217 327.527 57.8811 327.671 56.0176C330.302 56.9149 328.507 55.1653 329.529 55.2039C329.685 55.213 329.328 56.2543 331.901 55.7542C331.418 57.6313 328.449 56.2414 327.943 56.4706C326.898 56.9418 331.216 57.8923 332.004 56.4273C331.639 57.8921 332.311 56.6233 333.275 56.6793C334.33 56.7401 333.872 57.1778 334.443 57.1777C336.005 57.182 335.353 56.1519 336.646 57.0775C335.379 54.2003 338.845 56.6877 339.851 57.4383C338.217 57.5917 336.582 57.7451 334.94 57.8984C335.034 58.0494 335.129 58.2004 335.223 58.3513C334.791 58.3317 334.359 58.3121 333.926 58.2925C333.995 58.1471 334.064 58.0018 334.132 57.8564C331.909 58.809 331.363 57.7512 331.181 57.7402C328.843 57.6269 326.163 57.647 323.793 57.653C323.438 57.6539 323.684 58.5965 321.096 57.868C320.271 57.6361 321.046 56.8991 320.113 57.0129C318.953 59.0118 318.969 57.421 318.622 57.4198C317.626 57.4239 317.02 57.9203 316.928 57.9259C315.697 58.0077 313.906 57.932 312.55 58.0106C312.524 58.0183 313.233 58.6284 312.351 58.4504C312.041 58.3868 309.257 55.7815 306.843 56.6428C307.472 56.8171 308.102 56.9914 308.732 57.1657C307.989 56.9217 302.817 57.5995 304.085 58.2951C304.861 58.7203 306.749 57.0275 306.963 58.6481C305.244 58.1693 295.715 58.9283 294.973 58.5538C294.87 58.5004 295.499 57.9722 295.357 57.9054C295.247 57.8545 293.068 57.9865 292.779 57.7854C292.606 57.6659 293.567 57.3403 293.488 57.151C293.419 57.0161 290.701 56.7999 290.549 57.4597C291.214 57.1929 293.091 57.4178 292.109 57.9768C291.982 58.0462 291.326 57.6231 291.172 57.7112C289.749 58.5238 294.009 58.3158 294.672 58.3202C291.995 59.1693 287.846 58.1926 284.728 58.75C283.468 58.2052 286.59 57.9046 285.165 57.4544C282.211 56.5212 284.382 58.2158 284.291 58.2859C283.558 58.8419 281.057 55.8823 281.063 58.1408C279.996 57.8041 280.34 57.5183 278.837 57.8184C279.035 57.9742 279.234 58.1301 279.432 58.2859C277.78 59.5992 274.193 56.3093 274.464 56.0567C275.178 55.3808 277.035 56.4263 277.194 56.4005C277.431 56.3624 278.066 54.0687 280.619 56.11C281.656 54.5697 276.581 55.0849 278.887 54.0302C277.332 54.2069 270.859 53.1561 269.944 53.8333C269.834 53.9217 270.352 55.4518 268.763 54.6768C268.009 54.3078 269.825 54.2848 269.479 53.9368C268.431 52.8695 253.972 53.5937 251.199 53.6567C251.02 53.6589 251.084 53.1834 250.909 53.1882C250.369 53.2028 248.407 53.9165 247.445 53.7001C249.441 54.575 245.57 54.6529 244.591 54.5584C243.104 54.4146 243.187 53.5779 242.538 53.4015C240.027 52.7218 236.17 54.7165 234.24 52.8641C234.354 54.7066 230.897 51.9681 229.312 51.9552C228.077 51.9446 226.293 53.1677 227.957 53.907C225.828 53.8266 223.599 54.1749 221.621 54.2908C221.293 54.3102 221.746 53.7644 221.182 53.8148C221.131 53.8233 221.061 54.3574 220.575 54.4139C216.567 54.8872 218.517 53.7486 217.767 53.4165C217.348 53.2305 217.039 53.1382 216.813 53.108C219.136 52.9993 221.847 52.7842 222.545 52.7676C221.957 51.5897 217.373 53.0043 216.053 52.6894C216.007 52.678 216.166 52.0278 216.119 52.0233C216.118 52.0233 216.117 52.0233 216.116 52.0233C215.616 51.9744 212.455 52.2201 213.107 52.9939C213.282 53.2006 214.735 53.1975 216.468 53.1238C216 53.2701 216.351 53.9975 216.269 54.0287C215.265 54.3905 212.814 53.6844 211.949 53.5901C211.751 53.5695 211.766 54.0359 211.733 54.0371C210.946 53.9326 211.268 52.6001 210.461 53.975C209.024 52.3177 213.136 53.7238 212.843 52.6462C212.649 51.8167 203.432 52.2787 203.48 53.586C203.448 53.4462 203.322 53.2728 203.064 53.0758C202.488 52.638 199.967 52.7794 199.517 53.0211C199.442 53.0686 199.474 54.3377 199.381 54.3496C199.146 54.3792 196.009 53.3891 194.848 54.141C195.477 54.3179 196.108 54.4948 196.739 54.6717C192.933 54.6886 193.528 55.0654 194.791 55.4429C194.855 55.4463 194.916 55.4943 194.977 55.4994C195.958 55.7785 197.221 56.0467 197.24 56.1468C197.304 56.5288 190.871 56.7512 192.109 55.5719C192.278 55.4107 195.255 55.9305 193.78 55.0925C193.521 54.9457 191.615 55.1884 191.516 55.0959C190.843 54.4813 195.008 53.6571 194.499 52.783C193.486 53.6175 192.188 53.1807 191.033 53.3975C190.507 53.4955 190.379 54.132 190.315 54.1441C189.347 54.3116 189.889 53.6436 189.566 53.6607C189.391 53.6725 187.452 55.0952 187.817 53.1372C181.457 54.5861 186.052 54.5784 189.964 54.4624C188.74 55.1772 186.303 54.8358 185.225 55.0028C184.837 55.0634 185.067 55.7162 184.412 55.8478C183.067 56.1184 176.642 55.3765 174.948 55.2016C175.98 54.9695 175.677 54.2584 174.881 54.3086C174.085 54.359 174.755 55.3079 174.6 55.4102C174.43 55.5161 170.713 55.0723 170.103 55.196C172.889 54.8488 172.258 54.14 169.895 54.0685C170.236 53.8638 170.577 53.659 170.919 53.4543C169.556 53.743 166.566 52.664 165.765 52.987C165.638 53.0389 166.095 53.635 166.024 53.6641C165.311 53.9184 162.904 53.3125 162.794 53.5162C162.699 53.6857 163.724 54.1848 163.344 54.4314C163.265 54.4833 162.276 53.678 161.308 53.8772C160.949 53.9505 161.166 54.5145 161.075 54.5473C160.321 54.8194 160.77 53.8689 159.387 54.023C158.357 54.137 157.592 55.0665 156.179 54.7602C160.832 55.9398 156.912 55.449 154.982 55.8096C154.673 55.8671 154.936 56.8911 153.093 56.3941C157.018 54.5386 151.968 55.4163 150.952 55.3969C150.896 55.3907 150.876 54.7153 150.374 54.7049C150.331 54.7056 150.398 55.1619 149.924 55.1973C145.405 55.531 148.295 55.013 147.437 54.5636C147.071 54.3721 144.892 55.0193 144.31 55.0353C144.176 55.037 144.237 54.5627 143.718 54.5817C142.801 54.6164 141.984 55.122 141.383 55.1624C141.306 55.1648 141.329 54.4164 140.153 54.66C139.825 54.7281 139.457 54.9941 139.923 55.2089C141.476 55.9155 144.314 54.6886 146.056 55.3935C147.631 56.0355 142.667 56.1001 142.42 56.104C142.326 56.1064 143.287 55.7341 142.311 55.6613C141.486 55.6007 139.94 56.8943 138.672 56.6138C138.575 56.593 137.567 55.4977 137.614 55.4338C137.655 55.3871 139.204 55.1481 138.979 54.8311C138.952 54.795 137.967 54.8031 137.839 54.567C137.682 54.2797 137.257 51.4593 137.047 51.3887C136.51 51.2144 136.86 51.8574 136.513 51.8129C135.766 51.7191 133.205 50.8866 133.125 51.8643C133.547 51.9221 133.969 51.9798 134.392 52.0376C132.042 52.1396 133.046 52.5552 132.713 52.7388C132.355 52.9373 132.461 52.0779 131.664 51.9977C131.482 51.9801 128.112 52.1614 128.178 52.5219C130.034 51.947 129.348 53.0094 129.433 53.0283C129.759 53.0973 130.176 52.5014 130.615 52.513C133.705 52.6044 130.591 53.5465 131.32 53.7879C131.574 53.8691 132.069 53.3603 132.171 53.3862C132.508 53.4702 132.514 54.1362 132.74 54.0822C133.267 53.9569 132.651 53.0149 132.693 52.9658C133.161 52.3758 135.014 53.1084 133.862 54.1345C134.554 54.5035 134.635 53.2573 135.186 53.7552C136.283 54.7409 134.64 54.4886 134.198 54.6527C132.606 55.2446 132.161 54.7666 129.859 54.9316C129.036 54.9898 128.067 55.5957 127.688 55.6291C127.447 55.6502 125.203 53.5453 125.141 56.8415C124.271 56.523 122.928 54.3516 121.999 54.4514C121.18 54.5424 121.441 55.7084 121.365 55.7535C121.247 55.8244 120.26 55.733 119.928 55.898C119.539 56.0928 119.733 56.5378 119.116 56.7195C117.584 57.1704 117.628 55.9801 117.47 55.9028C115.655 55.0095 116.451 56.7022 116.049 56.8382C115.722 56.9631 110.336 56.3135 109.253 56.7423C109.703 56.5037 110.155 56.2652 110.609 56.0266C109.797 55.2844 108.944 56.4957 108.928 55.1643C108.764 57.3138 107.108 55.8776 106.617 55.9333C106.422 55.9562 106.433 56.3225 106.181 56.3383C105.191 56.4028 102.992 56.1119 102.469 56.2977C100.193 57.0979 106.018 58.4265 106.505 58.5066C105.554 58.4832 100.367 58.966 102.751 59.9987C103.119 60.158 103.775 59.196 103.983 59.1583C105.395 58.9102 104.285 59.7725 104.396 59.8545C104.583 59.9867 105.516 59.1532 105.763 59.2524C105.845 59.2842 105.32 60.0648 106.668 60.0809C106.001 60.8378 102.212 60.2223 101.732 60.4001C101.561 60.4636 102.64 62.0802 99.468 60.5104C99.5047 60.6605 99.5414 60.8106 99.5781 60.9607C97.822 61.0229 95.9593 61.0851 94.1908 61.1472C94.3841 60.8013 95.3859 60.1065 94.1248 60.2541C93.4007 60.3395 93.9365 61.1097 93.8704 61.1321C93.2806 61.3444 81.6567 61.0894 79.4132 61.1753C78.653 61.2032 76.5785 61.8224 76.3856 61.8339C75.3826 61.8959 71.9601 61.493 71.3036 61.5805C70.886 61.6366 71.2827 62.2805 70.9102 62.2503C70.5646 62.2213 70.9226 61.5989 70.82 61.5729C70.2269 61.4203 66.9142 61.7449 64.4933 61.7887C63.255 61.8096 62.2119 61.7664 61.7026 61.5767C62.1246 61.654 63.2929 61.4581 64.4933 61.1768C65.9337 60.8168 67.4238 60.3169 67.3696 60.0706C67.3473 60.0104 66.1881 59.5369 65.9529 59.7678C65.7077 59.4307 65.0914 59.9467 64.4933 60.3013C64.1124 60.5136 63.7381 60.668 63.4544 60.5474C63.3702 60.5108 63.701 59.5905 62.3599 59.4234C61.8986 59.3664 60.6992 60.0837 59.5243 59.2796C57.7602 59.666 48.5816 58.4725 48.0095 59.4613C48.0132 59.5135 49.2551 59.854 48.4114 60.2598C47.2403 60.7992 48.2907 58.9822 46.9157 58.8255C46.6676 58.8017 43.0358 58.9855 42.8457 59.098C41.6997 60.1177 44.9919 60.531 44.9297 60.6496C44.8318 60.9481 42.099 61.1287 41.9761 61.0583C41.8685 60.985 44.1248 59.6339 41.4183 60.1462C41.7252 60.3077 42.0343 60.4692 42.3458 60.6306C41.0714 60.9451 40.9625 60.0103 40.6587 59.9532C39.7336 59.7725 38.7085 61.1923 37.1695 59.4386C36.7679 58.9732 37.4348 58.4563 37.385 58.3865C36.9002 57.7601 36.288 59.4359 35.5831 58.186C35.5172 58.0927 37.2156 57.344 34.2627 57.3421C34.4703 57.4619 34.6792 57.5817 34.8894 57.7016C34.4304 57.9691 31.474 58.1281 31.0882 58.0649C29.8813 57.88 30.926 57.0197 29.7307 57.1226C30.4651 58.3015 26.9617 58.4554 27.1228 57.4405C26.5966 58.7151 23.5645 57.7318 22.1465 57.7016C21.28 57.6834 19.3707 58.2397 19.1248 58.1746C18.7934 58.0949 18.8851 57.2253 18.2384 57.0317C18.044 56.9765 16.1756 57.614 14.5383 56.7139C14.2523 56.5404 13.5278 55.0655 14.1534 54.6968C15.1104 54.066 17.1069 55.2543 17.0491 54.3827C17.051 53.4504 14.4338 54.0049 13.7361 53.8832C10.5552 53.3204 12.3823 52.3293 12.3066 52.0289C12.0698 51.2998 10.3356 51.3224 10.2561 51.2569C9.96155 50.9657 11.1782 50.3887 11.2006 49.9437C11.2286 49.3643 9.53513 48.3187 9.91806 48.1234C10.5144 47.8461 12.0047 48.7176 12.1438 48.676C13.4014 48.1139 11.658 46.7754 11.1598 46.1178C11.0123 45.9155 11.5996 45.583 11.4777 45.5236C9.631 44.6233 11.1293 47.4048 9.84753 47.219C8.73924 47.0534 10.1623 46.1738 10.1303 46.1253C10.0471 46.072 8.78695 46.0241 8.54591 45.7128C8.46019 45.557 11.8544 43.8461 11.7325 43.0789C10.6332 43.248 9.53716 43.417 8.44396 43.586C8.38516 42.5858 9.91043 43.3221 10.1013 43.219C10.4397 43.012 9.49817 42.5059 9.54415 42.1896C9.55904 41.9885 10.6611 41.2707 9.6691 40.9749C9.34689 40.8727 8.61373 41.574 7.44127 40.8575C11.6231 39.9425 8.73978 39.3803 8.60566 39.0259C8.51414 38.6717 10.4931 37.8378 8.04071 37.9852C7.93943 36.0387 8.07736 37.3699 8.81172 37.0278C9.64867 36.6073 7.66914 35.9663 10.7954 36.4526C10.6471 35.5412 8.10589 35.6057 7.9737 35.533C7.85835 35.4671 8.4172 35.0188 8.21749 34.867C5.88202 33.106 7.48273 33.9101 6.80161 32.7856C6.76228 32.6851 4.4984 32.2682 6.22874 32.1044C9.25644 31.8067 10.6253 33.0981 11.0943 30.3371C8.80855 29.1378 6.09365 30.92 5.37055 30.9502C4.314 30.9937 5.42283 30.4306 5.28187 30.2728C5.26806 30.2218 4.29953 30.2683 4.31264 30.2236C3.64318 28.1178 8.36956 30.1886 9.85352 29.8225C9.44179 29.5071 9.07983 29.1917 8.67189 28.8764C9.21194 28.8638 9.72057 28.8512 10.2947 28.8385C7.69425 28.2046 10.2067 28.5985 10.8339 26.8934C10.975 26.5103 9.33316 27.1673 11.2094 26.1025C9.8517 25.8567 10.2048 25.5083 8.96897 25.9889C8.96117 25.3055 11.9209 24.5345 13.0264 24.1838C8.99702 23.4158 11.2854 25.9227 7.80653 24.5963C7.16959 25.4426 8.81933 25.2778 8.70128 25.4175C8.18103 25.9198 7.06248 25.1223 5.67891 26.882C5.45857 27.171 6.39034 28.0603 5.0111 28.0173C4.82656 28.0112 3.97747 27.2512 3.96548 27.1961C4.1218 26.6009 4.94873 26.824 5.01422 26.5755C5.02496 26.3403 4.08108 26.4818 4.05325 26.4166C4.04924 25.6709 4.85719 26.1316 4.7465 25.8981C4.49676 25.3904 0.948231 23.7857 5.56153 24.2557C1.70516 25.0988 5.09118 25.0791 6.57048 24.7553C6.94054 24.6741 7.0707 24.2287 7.60404 24.0741C8.27493 23.8739 9.13946 24.0877 9.47847 24.006C9.87104 23.9159 7.6492 22.863 10.8639 23.1772C9.20534 22.1299 6.39174 23.2465 4.74052 22.5112C1.50415 21.0252 6.99752 20.7062 7.57882 20.5622C7.72692 20.5232 7.22952 19.9217 7.32559 19.8848C7.44975 19.8283 10.6325 20.1064 10.904 19.6086C11.0544 19.3599 10.7718 19.3656 10.4541 19.3687C10.1046 19.3718 9.70811 19.3722 9.66172 19.1128C9.61993 18.7636 13.3785 18.1443 11.3209 17.9056C9.93355 17.742 7.35478 19.1455 6.89784 17.6369C8.97184 17.5121 11.0233 17.3872 13.0862 17.2623C12.0035 16.6883 10.8516 16.1144 9.69868 15.5404C12.0114 15.3584 14.022 16.0064 16.2359 15.1847C10.9647 13.3455 17.937 13.7169 18.0122 13.4931C18.0176 13.3592 15.9974 11.8664 15.6221 11.5934C17.4562 11.0191 23.0795 10.7385 19.7906 8.89516C20.3613 9.31136 21.881 8.28396 21.8263 8.20641C21.6393 7.39207 18.4884 7.92013 19.0161 7.18464C19.5855 6.33112 20.4037 7.48903 21.3543 7.39656C26.0217 6.91449 24.7507 2.66328 29.436 3.33598C29.3425 3.18461 29.2493 3.03324 29.1564 2.88187C34.2671 3.1228 39.3711 3.36374 44.502 3.60467C46.4774 2.30644 51.8281 1.5159 54.4393 1.65953C54.9446 1.6875 57.5411 2.36885 57.7501 2.4883C58.1154 2.71722 56.1011 2.80458 57.0103 3.23381C57.2373 3.32191 61.5615 3.60819 61.2562 2.88187C60.7637 2.79765 59.2568 3.16276 59.0159 2.99161C58.1506 2.36936 61.0732 2.3173 64.4933 2.35092C67.5569 2.38331 71.1518 2.49516 71.4021 2.25364C71.1074 2.01775 70.8248 1.78187 70.5215 1.54598C71.3617 1.66202 72.1893 1.77806 73.0369 1.8941ZM33.9253 60.2295C33.4019 60.9583 32.1265 60.4109 31.401 60.6155C30.3259 60.902 28.55 63.7084 29.3143 60.8955C30.8822 60.6735 32.3676 60.4515 33.9253 60.2295ZM56.3508 61.3156C55.3208 60.9241 56.1151 59.3532 56.9687 60.0062C57.0644 60.0804 57.7555 61.8425 56.3508 61.3156ZM45.5603 60.5701C45.602 60.5493 46.4944 60.5909 46.5272 60.6155C47.3276 61.2463 44.6396 61.1173 45.5603 60.5701ZM97.7283 59.7615C96.5775 59.8295 97.4095 61.2575 98.1277 60.6696C98.1728 60.6323 97.804 59.7581 97.7283 59.7615ZM96.9101 59.7238C96.0165 58.4451 94.241 61.0373 95.6553 60.7761C95.7917 60.7497 96.9506 59.7861 96.9101 59.7238ZM52.7069 60.6912C52.8373 60.201 53.8894 60.4377 54.3283 60.555C54.3103 61.0025 53.1875 60.6364 52.7069 60.6912ZM79.6116 60.5547C79.6516 60.1693 76.0129 60.1908 75.7239 60.6986C76.3517 60.4832 79.5613 60.9009 79.6116 60.5547ZM89.0858 60.0127C88.9899 59.9461 87.708 60.0475 87.7464 60.3875C88.3688 60.8334 89.5115 60.3141 89.0858 60.0127ZM107.918 60.0313C107.988 59.9458 107.037 57.7825 109.283 59.2059C109.613 59.4143 108.435 59.98 108.552 60.0576C108.797 60.2089 108.991 60.2794 109.147 60.292C108.099 60.4717 107.022 60.5564 106.918 60.4252C106.429 59.8055 107.886 60.0669 107.918 60.0313ZM117.786 58.4155C118.001 58.0625 119.387 58.2506 119.705 58.3957C119.76 58.423 119.522 59.3507 120.15 59.2811C120.654 59.2236 119.9 58.2739 120.884 58.4255C121.88 58.5776 120.549 59.2553 120.637 59.3035C120.752 59.3668 122.295 58.9395 122.249 59.492C122.212 59.9012 120.558 59.6253 120.153 59.7125C119.633 59.8245 120.263 60.506 119.395 60.3599C118.85 60.2687 119.151 59.0696 119.036 59.0091C118.938 58.9603 117.044 59.6511 117.789 58.4193C117.788 58.418 117.787 58.4168 117.786 58.4155ZM109.431 60.2389C109.352 60.2795 109.259 60.301 109.147 60.292C109.242 60.2757 109.337 60.2568 109.431 60.2389ZM36.8918 59.7035C37.4246 60.0733 35.8414 60.5474 35.2666 60.063C35.2513 59.6723 36.8011 59.6459 36.8918 59.7035ZM110.405 59.2622C111.974 59.5621 110.816 59.9756 109.431 60.2389C109.871 60.0131 109.88 59.1621 110.405 59.2622ZM65.9529 59.7678C66.0179 59.8572 66.0592 59.9967 66.0644 60.2257C65.8934 59.9752 65.8782 59.8406 65.9529 59.7678ZM69.6142 60.1765C70.892 59.4788 68.2978 59.5069 68.3207 60.0062C68.3266 60.1947 69.5614 60.2043 69.6142 60.1765ZM99.1918 59.8293C99.0743 59.761 100.844 57.6537 98.2741 59.2353C99.6641 59.4833 98.2022 59.7131 98.2189 59.8976C98.3045 60.4279 100.563 59.9176 101.081 60.1467C101.478 59.1978 99.5607 60.0542 99.1946 59.8293C99.1937 59.8293 99.1927 59.8293 99.1918 59.8293ZM135.595 58.9167C135.282 59.4729 134.29 59.2947 133.625 59.2624C133.935 58.7062 134.924 58.8844 135.595 58.9167ZM311.496 58.6314C306.882 59.1625 306.279 56.9005 310.502 57.7798C310.585 57.7983 311.775 58.4009 311.496 58.6314ZM271.957 58.1757C271.521 57.1902 272.956 57.0273 273.903 57.4321C274.117 57.5231 274.91 58.5203 274.008 58.7184C274.033 57.5222 272.636 57.0694 271.957 58.1757ZM111.291 58.63C111.748 57.9717 113.163 58.4396 113.915 58.5382C113.455 59.0802 111.946 58.8357 111.291 58.63ZM296.35 57.5047C295.864 57.4316 295.539 58.2912 295.623 58.3624C296 58.6888 296.906 57.9915 296.35 57.5047ZM106.792 58.5293C106.727 58.136 108.561 57.7569 108.692 58.7292C108.296 58.659 106.836 58.776 106.792 58.5293ZM134.333 58.6224C134.046 58.4226 135.532 58.0636 135.985 58.2618C135.949 58.6804 134.521 58.7522 134.333 58.6224ZM288.545 57.822C288.108 57.7488 287.018 57.7296 286.899 58.0771C286.75 58.5114 288.347 58.3584 288.545 57.822ZM369.428 56.7384C369.484 56.894 367.807 58.0263 367.058 57.7457C365.635 57.2087 369.368 56.6286 369.428 56.7384ZM300.955 57.046C302.33 57.8577 300.805 57.0723 300.867 57.9318C301.792 57.9596 304.076 57.9939 302.501 57.1541C302.193 56.9916 301.389 57.1001 300.955 57.046ZM299.685 56.7628C299.539 57.0419 298.551 57.9233 299.407 57.8575C299.803 57.8257 300.439 56.8478 299.685 56.7628ZM359.009 57.1723C357.775 56.4172 363.416 56.7981 363.575 56.9305C363.661 57.0005 363.717 57.0666 363.749 57.1226C363.955 56.8804 365.018 56.8316 365.144 57.4412C364.825 57.3924 363.955 57.4504 363.854 57.3832C363.81 57.3547 363.777 57.3278 363.755 57.3005C363.384 57.832 359.246 57.3155 359.009 57.1723ZM349.675 56.433C351.073 55.3036 351.331 57.2116 351.21 57.2736C349.685 58.062 350.675 56.6495 350.628 56.5837C350.521 56.4745 349.439 57.1328 349.679 56.433C349.678 56.433 349.676 56.433 349.675 56.433ZM357.092 56.8674C357.15 56.8423 358.331 56.8957 358.38 56.9256C359.352 57.5625 356.008 57.4143 357.092 56.8674ZM125.241 57.0761C126.08 57.2654 125.256 57.9682 124.701 57.7159C124.655 57.691 124.502 56.9088 125.241 57.0761ZM299.009 56.9544C298.81 56.8224 293.792 56.339 294.099 57.3987C294.52 57.2722 300.229 57.7987 299.009 56.9544ZM261.544 56.8123C262.429 56.8181 261.467 57.8213 260.994 57.4496C260.819 57.3115 261.321 56.8115 261.544 56.8123ZM104.258 57.6217C103.335 58.1717 103.525 56.3276 104.326 56.9595C104.358 56.9842 104.295 57.6003 104.258 57.6217ZM268.612 57.3679C265.579 57.9828 266.284 54.809 270.241 55.8685C270.117 56.0101 269.994 56.1517 269.871 56.2934C274.442 56.756 270.182 56.5161 269.066 56.6968C268.642 56.7655 268.999 57.294 268.615 57.3717C268.614 57.3704 268.613 57.3692 268.612 57.3679ZM256.902 56.7641C253.973 54.5205 259.556 55.972 261.169 55.6743C259.612 56.6081 257.586 56.4728 260.345 57.4173C256.316 57.6121 257.993 56.7109 257.831 56.6368C257.64 56.5537 257.027 56.8605 256.902 56.7641ZM264.648 56.7281C264.816 56.662 266.109 57.1167 266.563 57.0407C265.925 57.8116 263.516 57.1779 264.648 56.7281ZM339.887 56.9991C339.991 56.3961 340.251 55.9511 341.26 56.1719C340.95 56.476 340.307 56.7393 339.887 56.9991ZM32.9488 57.0582C32.2506 57.015 30.9198 56.788 31.3288 57.4215C31.3671 57.4755 32.9405 57.4138 32.9488 57.0582ZM284.444 56.5144C284.294 56.4408 280.476 56.4029 281.797 57.0638C282.194 57.2631 285.672 57.167 284.444 56.5144ZM304.241 56.5235C303.922 56.5184 302.626 56.6365 302.599 56.7791C302.513 57.2721 304.103 56.9956 304.241 56.5235ZM29.4463 56.4414C29.3385 56.3789 27.2926 56.4896 27.4926 56.782C27.9459 57.3349 29.7471 56.6567 29.4463 56.4414ZM128.307 55.6629C128.485 55.6405 128.721 56.2949 128.782 56.3021C128.923 56.3114 132.208 56.0577 130.953 56.8988C130.734 57.0398 126.043 56.7197 125.451 56.637C125.216 55.7386 127.202 56.5923 127.69 56.4995C127.775 56.4819 127.83 55.7302 128.305 55.6666C128.306 55.6654 128.306 55.6641 128.307 55.6629ZM345.14 56.3401C345.28 55.7682 349.103 55.3726 349.063 56.0649C347.754 56.1567 346.447 56.2484 345.14 56.3401ZM343.199 56.2541C342.383 55.8537 344.29 55.7115 344.854 55.8872C344.862 56.2715 343.318 56.3127 343.199 56.2541ZM296.989 54.4145C296.605 54.5555 297.79 55.385 297.526 55.5479C297.357 55.6494 296.497 55.3399 296.225 55.6016C296.147 55.6847 297.025 56.4652 297.279 56.4305C297.638 56.3841 297.287 55.7687 297.68 55.7631C298.983 55.7454 300.144 56.1811 301.368 56.1666C301.478 56.1641 300.623 55.7316 301.561 55.7345C301.706 55.7341 302.577 56.3796 303.699 56.2795C306.17 54.262 307.999 56.2276 311.155 55.4917C311.035 55.303 308.672 54.8044 308.534 54.7861C305.89 54.4655 301.203 54.4459 298.422 54.4512C297.713 54.4519 298.059 54.8758 297.753 54.8925C297.512 54.9048 297.796 54.1166 296.989 54.4145ZM33.3178 56.623C32.9793 55.8368 31.8435 56.3344 31.1157 56.2938C31.3833 57.003 32.5821 56.4488 33.3178 56.623ZM326.059 55.7176C325.689 55.7495 324.534 55.5173 324.439 55.7544C324.318 56.0641 325.984 56.2524 326.059 55.7176ZM146.619 55.8736C146.655 55.8522 147.554 55.8935 147.589 55.9182C148.393 56.5486 145.696 56.4215 146.619 55.8736ZM168.037 56.0044C168.72 55.9066 169.419 55.6601 169.639 56.2978C169.215 56.2006 167.955 56.4488 168.037 56.0044ZM197.559 55.9457C197.416 55.1105 199.473 55.6483 199.864 55.7225C199.719 56.0941 197.663 56.5475 197.559 55.9457ZM339.729 54.3773C340.976 54.4212 340.707 53.1569 341.502 53.7261C341.632 53.8224 342.061 56.4556 340.686 55.4743C340.438 55.2979 341.4 54.6675 339.729 54.3773ZM270.885 55.8931C271.201 55.3395 272.193 55.5007 272.865 55.543C272.715 55.954 271.362 55.8523 270.885 55.8931ZM25.6195 55.8094C25.0807 55.0292 22.3121 55.608 22.9974 56.1235C23.087 56.1908 25.2693 55.7799 25.6195 55.8094ZM114.498 56.1084C115.621 55.4936 113.286 55.3042 112.552 55.9048C112.883 55.8653 114.42 56.1489 114.498 56.1084ZM190.475 55.5024C190.528 55.4771 191.7 55.5347 191.753 55.5648C192.715 56.205 189.398 56.0456 190.475 55.5024ZM160.997 54.9977C161.416 54.4917 164.2 54.8968 164.831 55.4024C164.223 56.1424 160.472 55.6298 160.997 54.9977ZM334.592 54.7589C335.484 54.7289 336.332 54.881 337.154 55.0961C336.982 55.5225 334.687 55.0765 334.592 54.7589ZM194.791 55.4429C194.855 55.4463 194.916 55.4943 194.977 55.4994C194.913 55.4815 194.852 55.461 194.791 55.4429ZM314.655 54.54C313.91 54.3747 314.067 55.1541 314.113 55.1778C314.674 55.4283 315.498 54.7266 314.655 54.54ZM32.4692 55.465C32.2105 54.7611 30.9981 55.3071 30.2379 55.1396C30.461 55.6955 31.9071 55.5389 32.4692 55.465ZM253.759 55.3305C252.821 54.5696 256.633 53.6732 257.431 54.1629C257.49 54.6343 253.909 55.4346 253.759 55.3305ZM111.007 55.0539C110.93 54.5023 109.332 55.1685 109.672 55.429C109.886 55.5947 111.052 55.3965 111.007 55.0539ZM259.347 54.4795C259.704 54.3102 260.541 54.8523 260.248 55.1848C259.871 55.611 259.254 54.528 259.347 54.4795ZM291.518 53.9409C291.36 53.8571 289.263 54.4302 290.132 54.9899C290.735 55.3789 290.828 54.5813 290.97 54.5784C291.128 54.5805 294.507 55.545 291.518 53.9409ZM232.395 54.9004C233.184 54.6866 234.14 54.9307 234.97 54.9136C234.632 55.2555 232.731 55.3527 232.395 54.9004ZM117.191 54.9039C117.012 54.6809 111.744 54.5487 114.755 55.2341C114.922 55.2729 117.771 55.5792 117.191 54.9039ZM339.729 54.3773C339.572 54.3717 339.39 54.3462 339.18 54.2926C339.389 54.3132 339.571 54.3497 339.729 54.3773ZM325.552 54.3535C325.838 53.9509 324.389 53.8494 323.96 54.0648C323.83 54.5559 325.516 54.4098 325.552 54.3535ZM235.031 54.3534C235.509 54.1226 236.377 54.3659 236.97 54.3377C236.87 54.7112 235.238 54.7322 235.031 54.3534ZM201.359 53.9982C202.305 54.2185 203.473 54.1145 203.49 53.6579C203.51 53.7292 203.556 53.8049 203.633 53.8809C203.71 53.9562 204.727 53.7421 205.171 53.8972C207.809 54.8187 194.979 54.4579 202.407 53.1564C202.057 53.437 201.708 53.7176 201.359 53.9982ZM157.205 53.9267C156.66 53.3714 155.143 54.0693 155.537 54.2878C155.81 54.4375 157.75 54.4858 157.205 53.9267ZM178.012 53.5743C177.848 53.4753 176.362 53.8664 176.324 54.1592C177.177 54.4666 178.755 54.0342 178.012 53.5743ZM153.046 53.2797C152.709 53.1961 152.28 54.0927 152.319 54.1318C152.662 54.4587 153.614 53.7782 153.046 53.2797ZM337.137 51.9741C336.63 51.7196 335.02 52.3752 334.671 52.9685C334.606 52.8544 334.429 52.7059 334.105 52.5282C334.106 52.5282 334.107 52.5282 334.108 52.5282C333.663 52.2914 320.678 52.0832 329.392 53.1874C329.666 53.2228 329.29 52.6931 330.402 52.7821C330.475 52.7886 330.514 53.2222 330.74 53.2424C331.262 53.2861 334.046 53.5474 334.604 53.1959C334.61 53.2763 334.646 53.3526 334.723 53.4224C335.412 54.0451 337.531 52.1703 337.137 51.9741ZM180.94 53.491C180.644 53.3307 179.711 53.4845 179.615 53.8674C180.077 54.0544 181.626 53.8651 180.94 53.491ZM117.028 53.3335C116.425 53.0189 114.911 53.6081 115.369 53.9207C115.647 54.1131 117.721 53.6946 117.028 53.3335ZM171.506 53.7071C174.965 54.1555 172.331 53.6696 172.86 53.1076C172.408 53.3074 171.956 53.5073 171.506 53.7071ZM353.221 53.3512C352.667 53.2246 353.313 52.114 353.925 52.7121C354.118 52.902 353.532 53.4199 353.221 53.3512ZM378.245 52.8815C377.767 51.9019 380.079 52.4667 379.183 53.1452C379.141 53.1682 378.279 52.9187 378.245 52.8815ZM360.759 52.5696C360.386 53.2402 360.141 53.3207 359.079 53.1605C360.649 52.9645 359.189 52.3802 360.759 52.5696ZM203.48 53.586C203.486 53.613 203.491 53.633 203.49 53.6579C203.483 53.6333 203.48 53.61 203.48 53.586ZM149.803 53.4566C149.361 52.8905 148.131 52.9332 148.498 53.5031C148.533 53.5559 149.622 53.8753 149.803 53.4566ZM334.671 52.9685C334.73 53.0698 334.7 53.1355 334.604 53.1959C334.6 53.1202 334.624 53.0487 334.671 52.9685ZM156.323 52.989C156.279 53.4117 158.147 53.5743 158.223 53.5246C159.297 52.7905 157.091 52.9629 156.323 52.989ZM104.765 52.7436C104.668 52.7878 105.292 53.8786 105.677 53.451C105.974 53.1193 105.127 52.5757 104.765 52.7436ZM364.354 52.2794C364.941 52.2773 365.768 52.2726 365.923 52.7901C365.529 52.7125 364.344 52.6597 364.354 52.2794ZM377.337 52.1749C376.646 52.7878 375.061 52.7944 374.049 52.6993C374.026 51.8975 376.686 52.367 377.337 52.1749ZM338.729 52.2662C338.681 52.2337 337.21 52.0008 337.413 52.5367C337.709 53.3227 339.145 52.5563 338.729 52.2662ZM107.634 53.3218C108.279 52.9519 106.805 51.8162 106.092 52.694C105.74 53.1435 107.529 53.3837 107.634 53.3218ZM145.968 52.718C145.097 53.0294 147.257 53.581 147.561 53.0195C147.158 52.9748 146.277 52.6078 145.968 52.718ZM175.553 52.1204C172.808 50.5049 174.306 53.4563 174.791 53.1961C174.86 53.1589 175.62 52.1584 175.553 52.1204ZM18.8534 52.5738C18.4798 52.7988 19.8739 53.6136 20.0686 53.0771C20.1791 52.7414 19.089 52.4305 18.8534 52.5738ZM216.813 53.108C216.697 53.1135 216.582 53.119 216.468 53.1238C216.554 53.0972 216.666 53.0884 216.813 53.108ZM138.079 50.5555C140.023 52.8397 139.821 51.0782 139.99 51.0877C140.36 51.1121 141.203 51.7295 141.874 51.6275C141.106 51.8854 140.319 52.1433 139.527 52.4012C140.193 52.5658 145.472 53.4032 145.605 53.0324C145.765 52.5045 144.079 52.6714 144.031 52.6249C143.961 52.5587 143.697 51.0916 143.542 51.0359C143.293 50.9469 138.815 50.9198 138.079 50.5555ZM169.845 52.3807C170.281 52.5547 170.406 53.1359 170.609 52.9967C170.678 52.9491 170.688 52.3945 170.925 52.2508C170.564 52.2941 170.204 52.3374 169.845 52.3807ZM134.626 52.6127C134.081 51.9354 136.521 52.1911 136.602 52.267C137.02 52.726 135.068 53.1659 134.626 52.6127ZM155.394 52.4979C155.303 52.4585 153.426 52.2486 153.442 52.6246C153.936 52.9108 156.453 52.992 155.394 52.4979ZM171.216 52.2126C171.872 52.2766 173.116 52.8335 172.973 51.9987C172.972 51.9987 172.971 51.9987 172.97 51.9987C172.384 52.07 171.8 52.1413 171.216 52.2126ZM109.87 51.5575C108.652 50.2281 109.227 51.9083 110.309 52.337C110.637 51.7398 110.07 51.7739 109.87 51.5575ZM105.981 50.5673C105.626 50.3281 102.097 50.5913 102.638 51.2948C102.826 51.5455 104.857 50.9125 104.953 50.9611C105.096 51.0332 104.444 51.8119 105.534 51.6573C105.47 51.3935 106.099 50.6472 105.981 50.5673ZM108.863 50.7064C107.657 49.6954 107.39 51.5609 108.293 51.5656C108.647 51.5688 109.035 50.8523 108.863 50.7064ZM113.847 50.8636C113.403 50.6869 112.224 50.4293 111.419 51.0499C112.498 51.1025 113.586 51.1551 114.679 51.2076C114.807 50.8561 114.236 51.0189 113.844 50.8636C113.845 50.8636 113.846 50.8636 113.847 50.8636ZM384.622 47.3559C383.652 46.8322 385.879 46.6173 385.974 46.7467C386.257 47.1766 385.056 47.5898 384.622 47.3559ZM11.2841 35.6276C11.0124 35.4167 10.8574 34.723 10.2669 35.0865C10.8577 35.5986 11.4217 36.1107 12.0496 36.6229C12.5349 35.4494 11.5698 35.8602 11.2841 35.6276ZM9.02926 31.34C9.11502 31.3116 8.65251 29.5071 9.72684 30.7118C10.4583 31.5252 6.47609 32.3179 5.7607 31.5178C6.56447 31.146 8.28426 31.5716 9.02926 31.34ZM2.04938 23.5291C2.0134 23.3852 3.53596 23.1742 3.68845 23.2756C4.60591 23.8103 2.29664 24.3001 2.04938 23.5291ZM6.86961 23.8735C6.15379 23.5231 7.74931 23.2972 8.19968 23.4989C8.23837 23.8347 6.99694 23.9246 6.86961 23.8735ZM374.699 21.2742C373.926 20.0519 373.253 22.6955 374.431 22.1574C374.487 22.1321 374.732 21.3341 374.699 21.2742ZM3.53177 21.7089C4.22304 22.0593 2.67915 22.2852 2.20804 22.0835C2.14217 21.748 3.42649 21.6576 3.53177 21.7089ZM374.144 18.3556C373.121 17.4785 373.494 20.4384 373.623 20.5571C374.149 21.0257 375.942 19.8538 376.308 19.5628C373.618 20.0215 374.626 18.7689 374.144 18.3556ZM369.445 20.1585C368.5 20.4793 370.922 21.0713 371.38 20.2432C370.91 20.2852 369.714 20.0658 369.445 20.1585ZM363.698 19.2376C363.189 19.134 361.677 18.8875 361.426 19.3547C361.98 19.2676 363.486 19.7182 363.698 19.2376ZM362.541 17.8468C361.744 17.2175 361.562 19.0635 362.475 18.5094C362.511 18.488 362.57 17.8819 362.541 17.8468ZM358.064 17.2026C357.538 16.4714 356.951 18.261 357.797 18.3051C358.049 18.3149 358.12 17.2865 358.064 17.2026ZM372.85 15.1759C372.1 14.8647 371.144 16.1493 372.741 16.2815C372.181 16.4799 371.621 16.6784 371.062 16.8768C373.157 17.5832 372.994 15.8095 373.595 15.8797C374.433 15.9796 374.375 17.4442 374.209 17.9049C374.891 17.0043 377.808 16.9745 379.495 16.7946C378.01 16.4261 375.601 15.7861 374.138 15.5552C373.721 15.4883 373.317 15.892 372.96 15.849C372.387 15.7778 372.892 15.1969 372.853 15.1759C372.852 15.1759 372.851 15.1759 372.85 15.1759ZM352.187 17.204C350.652 16.38 351.629 18.1699 352.493 17.8459C352.53 17.8211 352.226 17.2241 352.187 17.204ZM1.50077 16.2557C3.53118 17.0057 2.06476 17.9999 6.34391 16.4903C4.52203 17.559 6.24123 17.2589 5.88736 17.6899C5.5921 18.031 4.55851 17.7485 5.17366 18.4354C4.37611 17.6878 0.843293 17.8946 0.708714 17.7732C0.709768 17.7732 0.710877 17.7732 0.712048 17.7732C0.624426 17.7013 0.838502 16.0171 1.50077 16.2557ZM363.668 14.5451C363.146 12.3703 362.963 15.8272 361.95 14.0275C360.626 16.6547 365.643 14.0097 366.264 16.22C360.796 15.9901 369.887 18.3951 366.055 15.1009C369.205 16.2876 367.083 14.6853 367.566 14.2607C368.083 13.8083 369.865 14.288 369.771 13.4775C369.77 13.4775 369.769 13.4775 369.768 13.4775C368.679 13.5398 367.592 13.6021 366.504 13.6643C367.578 15.4084 365.352 14.8951 364.591 13.4733C364.283 13.8306 363.976 14.1878 363.668 14.5451ZM369.833 16.1565C369.725 16.117 367.359 16.3742 367.514 16.7246C367.831 16.947 371.19 16.6613 369.833 16.1565ZM380.247 15.7196C379.397 15.7199 378.082 15.3856 377.623 16.0477C378.472 16.0476 379.788 16.3821 380.247 15.7196ZM336.492 15.8059C335.411 16.3519 338.747 16.4979 337.779 15.8609C337.732 15.831 336.547 15.7804 336.492 15.8059ZM361.209 14.8864C360.102 14.2264 360.634 16.3419 361.448 15.786C361.495 15.7532 361.26 14.9165 361.209 14.8864ZM3.15327 15.9983C3.22127 15.4794 6.21296 15.8439 6.72098 15.8394C6.44933 16.3217 3.06261 16.5932 3.15327 15.9983ZM381.733 13.7702C380.031 11.9135 377.749 14.0809 377.497 14.0351C377.247 13.9884 377.635 13.1707 377.578 13.1491C377.447 13.1041 374.786 13.1866 374.657 13.244C374.565 13.2888 375.053 14.4325 374.505 14.7964C375.573 14.1396 380.444 14.5211 380.697 14.3926C380.892 14.2901 379.409 13.0945 381.73 13.7702C381.731 13.7702 381.732 13.7702 381.733 13.7702ZM376.868 13.7887C377.535 14.2656 375.67 14.3356 375.218 14.1607C374.213 13.7692 376.782 13.7322 376.868 13.7887ZM372.377 13.3694C372.163 13.2628 370.237 13.1748 370.076 13.7105C370.991 14.3997 372.863 13.618 372.377 13.3694ZM350.97 13.5464C350.471 13.6172 349.099 13.2125 349.021 13.6803C349.521 13.6098 350.894 14.0142 350.97 13.5464ZM13.2861 11.9188C12.4383 11.5277 14.4308 11.368 14.9421 11.5555C14.956 11.7114 14.57 11.8107 14.1763 11.8667C13.7452 11.9227 13.3214 11.9356 13.2861 11.9188ZM361 10.4181C360.701 10.2776 354.663 10.6613 353.819 10.884C354.647 11.2337 360.633 11.2321 360.906 11.0581C360.985 11.0061 361.038 10.4403 361 10.4181ZM374.05 10.1364C374.599 9.44527 374.964 10.2689 375.033 10.2789C375.717 10.3806 377.135 10.2179 376.827 10.8825C375.619 10.6215 372.957 11.509 374.05 10.1364ZM350.527 10.4339C348.483 10.6988 352.416 11.4057 351.897 10.6887C351.864 10.6453 350.739 10.4061 350.527 10.4339ZM361.673 10.2143C362.12 9.656 368.155 10.1055 369.126 10.1013C368.263 11.1315 367.559 10.3559 366.394 10.4141C366.079 10.431 366.165 10.8573 366.132 10.8582C365.587 10.8807 365.992 10.3857 365.656 10.38C365.444 10.3777 361.042 11.001 361.673 10.2143ZM374.362 9.65798C374.697 9.26171 378.463 9.07358 378.615 9.17758C379.753 9.95141 374.655 9.7939 374.362 9.65798ZM361.115 9.30496C361.758 8.10961 364.756 8.89322 362.71 9.4977C362.514 9.55274 361.684 9.04 361.115 9.30496ZM350.741 9.2976C350.64 9.26301 348.506 9.03453 348.467 9.41403C348.782 9.56003 351.887 9.67792 350.741 9.2976ZM351.841 8.00959C351.789 8.01892 352.293 8.74719 351.292 8.65927C351.209 8.65094 351.049 7.82968 349.794 8.13639C349.539 8.19953 349.147 8.74513 349.175 8.77879C350.489 10.0628 354.423 7.5737 351.841 8.00959ZM374.428 8.99159C374.223 8.64569 374.707 7.61333 375.151 8.13253C375.342 8.35672 374.992 8.9766 374.428 8.99159ZM343.96 8.99544C345.199 8.36536 341.3 8.26465 341.103 8.42532C341.229 8.81382 343.836 9.05701 343.96 8.99544ZM15.2288 7.0976C15.2278 7.0976 15.2269 7.0976 15.2259 7.0976C16.2797 7.23912 15.6277 7.75868 15.6758 7.775C17.9223 8.53813 17.2992 7.36136 17.6552 7.22248C18.3897 6.92214 18.3462 8.35317 19.5468 7.75986C17.4922 8.63602 19.3779 8.26872 19.4221 8.77784C19.6764 10.8555 16.6703 7.80499 15.6072 8.24047C15.4557 8.30077 16.5579 8.96385 16.1747 9.15249C14.9377 9.76371 11.2325 6.55643 15.2288 7.0976ZM375.491 8.03991C375.972 7.42715 379.649 7.99947 378.678 8.50741C378.521 8.5889 374.784 8.9332 375.491 8.03991ZM203.735 7.71195C204.616 7.18233 202.572 6.56489 202.196 6.97658C202.008 7.18168 203.348 7.94439 203.735 7.71195ZM189.395 5.47516C188.334 5.58391 187.223 7.78791 188.539 7.44424C188.679 7.40669 189.517 5.78049 189.395 5.47516ZM258.326 6.46656C257.23 5.68238 257.299 7.14459 258.102 7.12184C258.385 7.11404 258.36 6.49138 258.326 6.46656ZM216.476 6.75064C216.366 6.6998 215.099 6.79556 215.146 7.13158C215.614 7.33236 217.187 7.09971 216.476 6.75064ZM258.673 6.2575C258.025 6.52279 259.144 7.57755 259.935 6.54174C259.532 6.62761 258.739 6.2304 258.673 6.2575ZM358.831 6.08422C358.289 6.68734 356.747 6.5133 355.863 6.6207C355.764 5.8432 358.199 6.22834 358.831 6.08422ZM193.829 6.3541C192.837 6.90392 194.965 7.34958 194.769 6.62514C194.742 6.58581 193.868 6.33067 193.829 6.3541ZM293.696 6.07302C292.976 6.53952 295.27 7.15591 294.637 6.34234C294.605 6.30919 293.736 6.04708 293.696 6.07302ZM303.717 6.30708C303.17 6.15251 300.841 6.20887 301.749 6.65843C301.889 6.72752 303.678 6.7323 303.717 6.30708ZM17.717 6.6624C17.4049 5.86324 19.1893 6.05347 19.3921 6.19315C19.503 6.25124 18.1064 7.70218 17.717 6.6624ZM251.205 6.36007C250.636 6.46149 249.163 6.27515 248.905 6.69504C249.598 6.60655 251.394 7.19477 251.205 6.36007ZM198.374 6.34324C197.5 5.47623 196.017 5.56425 196.385 6.69832C198.026 6.61971 196.179 5.67881 198.374 6.34324ZM262.324 5.31295C261.868 5.24794 261.522 6.33855 261.574 6.38974C262.068 6.87681 262.778 5.73566 262.324 5.31295ZM228.187 6.29204C228.16 5.82644 226.701 6.04084 226.896 6.34015C226.96 6.44064 228.209 6.66885 228.187 6.29204ZM339.735 5.90716C339.066 5.48504 341.101 5.0606 341.707 5.55411C342.003 6.26781 339.819 5.95562 339.735 5.90716ZM274.942 5.54949C275.008 4.85823 272.725 5.25568 273.627 5.82585C273.852 5.96852 274.919 5.78063 274.942 5.54949ZM296.756 4.65111C295.226 5.4805 301.663 6.04336 299.968 5.02226C299.846 4.94953 296.888 4.58109 296.756 4.65111ZM307.241 5.12882C306.977 5.03897 307.1 2.71636 308.195 3.60782C308.339 3.72342 307.67 4.33973 307.788 4.4797C307.857 4.55948 310.234 4.87688 310.344 4.82225C310.462 4.76026 310.32 4.0165 310.44 3.93257C310.574 3.83878 312.041 4.48713 312.809 4.49138C314.248 4.49823 314.4 3.87814 314.518 3.87565C314.862 3.87024 315.441 4.30789 316.138 4.30467C319.645 4.28637 325.057 3.73972 327.834 5.04169C325.358 4.52439 322.985 5.09351 320.513 5.27541C321.231 3.97952 316.881 6.28592 319.425 4.78392C318.254 5.11244 308.11 5.40946 307.244 5.12881C307.243 5.12881 307.242 5.12882 307.241 5.12882ZM185.225 4.83016C185.868 4.03642 182.558 4.21931 182.283 5.13691C182.716 5.26364 185.143 4.92015 185.225 4.83016ZM200.511 2.87335C200.816 2.73599 201.101 1.18575 202.707 1.96906C202.708 1.96906 202.709 1.96906 202.711 1.96905C203.181 2.19781 202.646 2.57633 202.733 2.71074C202.764 2.76564 204.23 3.53412 203.014 3.66014C201.161 3.85344 202.837 2.50749 201.849 2.49272C201.728 2.49166 199.865 3.3336 199.974 3.51756C199.985 3.53899 200.546 3.36062 200.638 3.43701C200.989 3.72415 200.819 4.20839 200.869 4.23134C201.028 4.29011 203.984 3.4607 204.418 4.18002C204.552 4.41203 199.711 4.9557 199.514 4.83525C199.393 4.75937 199.442 3.41591 199.316 3.28399C199.251 3.2183 197.277 3.72485 197.022 3.60174C196.948 3.56614 196.891 3.52772 196.849 3.49605C197.147 3.91121 195.366 3.88407 195.42 3.41502C195.45 3.23066 196.676 3.33544 196.721 3.36759C196.74 3.3812 196.757 3.39997 196.772 3.41292C196.514 2.90684 200.684 2.92302 199.783 2.17065C200.974 1.75576 199.617 3.27673 200.511 2.87335ZM206.259 2.03494C206.135 2.17643 206.011 2.31793 205.888 2.45942C207.985 2.11002 210.45 2.78577 212.84 2.77631C213.451 2.77493 212.746 1.91217 213.548 2.14681C214.191 2.33484 214.905 3.13495 214.555 3.31429C214.469 3.35904 213.16 2.83947 212.507 2.89423C210.579 3.05634 211.068 3.79642 210.955 3.81664C210.837 3.83792 209.605 3.31904 208.934 3.34343C207.249 3.40637 206.48 3.86265 204.191 3.27216C205.511 2.78157 204.785 1.72191 206.259 2.03494ZM284.559 3.42347C284.637 2.95683 286.014 3.36625 286.515 3.29614C286.438 3.76394 285.058 3.35336 284.559 3.42347ZM79.6961 3.10863C79.2695 3.874 82.4431 4.06331 81.6068 3.42639C81.4192 3.28504 80.0895 3.11405 79.6961 3.10863ZM93.9177 3.57255C94.3376 3.36088 92.6459 2.81012 92.651 3.40246C92.6525 3.59241 93.8624 3.60008 93.9177 3.57255ZM233.426 2.73488C233.505 2.71075 234.664 2.87865 234.701 2.9175C235.469 3.72847 231.657 3.26715 233.426 2.73488ZM111.202 2.62579C109.719 3.12797 114.189 3.34378 112.822 2.70467C112.752 2.67355 111.272 2.60139 111.202 2.62579ZM117.38 2.48336C117.027 2.5104 115.473 2.26197 115.454 2.49551C115.422 2.87231 117.201 3.12902 117.38 2.48336ZM262.624 2.42089C262.45 1.55903 264.529 2.20638 265.253 2.09576C265.427 2.95823 263.344 2.31004 262.624 2.42089ZM249.547 1.81923C258.307 1.11725 256.373 2.96472 249.028 2.24058C249.016 1.68738 248.996 1.86341 249.547 1.81923ZM260.728 1.89245C260.412 2.44575 259.42 2.28459 258.751 2.24211C258.87 1.85771 260.244 1.99304 260.728 1.89245ZM75.9416 1.9243C76.5259 1.22642 78.9054 2.08666 78.4819 2.37453C78.3965 2.4367 75.7494 2.30809 75.9416 1.9243ZM234.152 1.99534C233.946 1.15715 236.56 1.49343 236.762 1.67921C237.571 2.42655 234.361 1.8098 234.152 1.99534ZM275.016 1.64761C275.478 0.989333 276.8 1.32325 277.649 1.3294C277.265 1.89228 275.735 1.6573 275.016 1.64761ZM268.909 1.15073C268.962 1.12537 270.139 1.1813 270.192 1.21139C271.158 1.85023 267.829 1.69545 268.909 1.15073ZM13.7906 0.789135C13.844 0.767966 14.7241 0.809853 14.7507 0.834547C15.1421 1.14989 14.6751 1.27535 14.2422 1.25356C13.7685 1.23178 13.3185 1.06275 13.7906 0.789135Z" fill="black"/>
</svg>
